# xmcd
#
# Track frame offsets: 
#        150
#        8181
#        21317
#        35679
#        54900
#        68339
#        82842
#        97435
#        114343
#        132079
#        146402
#        164926
#
# Disc length: 2430 seconds
#
# Revision: 0
# Processed by: cddbd v1.5.2PL0 Copyright (c) Steve Scherf et al.
# Submitted via: ExactAudioCopyFreeDBPlugin 1.0
#
DISCID=9d097c0c
DTITLE=SPYAIR - Rockin' the World
DYEAR=2011
DGENRE=JPop
TTITLE0=Rockin' the World
TTITLE1=ジャパニケーション
TTITLE2=サムライハート(Some Like It Hot!!)
TTITLE3=BEAUTIFUL DAYS
TTITLE4=STRONG
TTITLE5=LIAR
TTITLE6=Stay together
TTITLE7=Beautiful
TTITLE8=I miss you
TTITLE9=Last Moment
TTITLE10=SINGING(album mix)
TTITLE11=My Friend
EXTD=
EXTT0=
EXTT1=
EXTT2=
EXTT3=
EXTT4=
EXTT5=
EXTT6=
EXTT7=
EXTT8=
EXTT9=
EXTT10=
EXTT11=
PLAYORDER=
